<mxfile host="app.diagrams.net" agent="Mozilla/5.0 (Windows NT 10.0; Win64; x64) AppleWebKit/537.36 (KHTML, like Gecko) Chrome/135.0.0.0 Safari/537.36" version="26.2.9">
  <diagram name="Страница — 1" id="k-BCyhvzRfeXFxPZQmdR">
    <mxGraphModel dx="599" dy="784" grid="1" gridSize="10" guides="1" tooltips="1" connect="1" arrows="1" fold="1" page="1" pageScale="1" pageWidth="827" pageHeight="1169" math="0" shadow="0">
      <root>
        <mxCell id="0" />
        <mxCell id="1" parent="0" />
        <mxCell id="sStnEUvEsNFolojUVmBR-1" value="" style="whiteSpace=wrap;html=1;aspect=fixed;" vertex="1" parent="1">
          <mxGeometry x="1241" y="160" width="720" height="720" as="geometry" />
        </mxCell>
        <mxCell id="sStnEUvEsNFolojUVmBR-2" value="" style="rounded=0;whiteSpace=wrap;html=1;" vertex="1" parent="1">
          <mxGeometry x="1371" y="180" width="570" height="680" as="geometry" />
        </mxCell>
        <mxCell id="sStnEUvEsNFolojUVmBR-21" style="rounded=0;orthogonalLoop=1;jettySize=auto;html=1;endArrow=none;startFill=0;" edge="1" parent="1" source="sStnEUvEsNFolojUVmBR-3" target="sStnEUvEsNFolojUVmBR-6">
          <mxGeometry relative="1" as="geometry" />
        </mxCell>
        <mxCell id="sStnEUvEsNFolojUVmBR-22" style="rounded=0;orthogonalLoop=1;jettySize=auto;html=1;endArrow=none;startFill=0;" edge="1" parent="1" source="sStnEUvEsNFolojUVmBR-3" target="sStnEUvEsNFolojUVmBR-7">
          <mxGeometry relative="1" as="geometry" />
        </mxCell>
        <mxCell id="sStnEUvEsNFolojUVmBR-23" style="rounded=0;orthogonalLoop=1;jettySize=auto;html=1;endArrow=none;startFill=0;" edge="1" parent="1" source="sStnEUvEsNFolojUVmBR-3" target="sStnEUvEsNFolojUVmBR-8">
          <mxGeometry relative="1" as="geometry" />
        </mxCell>
        <mxCell id="sStnEUvEsNFolojUVmBR-3" value="Гость" style="shape=umlActor;verticalLabelPosition=bottom;verticalAlign=top;html=1;outlineConnect=0;" vertex="1" parent="1">
          <mxGeometry x="1290" y="190" width="30" height="60" as="geometry" />
        </mxCell>
        <mxCell id="sStnEUvEsNFolojUVmBR-6" value="Регистрация" style="ellipse;whiteSpace=wrap;html=1;" vertex="1" parent="1">
          <mxGeometry x="1430" y="190" width="120" height="50" as="geometry" />
        </mxCell>
        <mxCell id="sStnEUvEsNFolojUVmBR-7" value="Авторизация" style="ellipse;whiteSpace=wrap;html=1;" vertex="1" parent="1">
          <mxGeometry x="1430" y="250" width="120" height="50" as="geometry" />
        </mxCell>
        <mxCell id="sStnEUvEsNFolojUVmBR-12" style="rounded=0;orthogonalLoop=1;jettySize=auto;html=1;dashed=1;" edge="1" parent="1" source="sStnEUvEsNFolojUVmBR-8" target="sStnEUvEsNFolojUVmBR-9">
          <mxGeometry relative="1" as="geometry" />
        </mxCell>
        <mxCell id="sStnEUvEsNFolojUVmBR-15" value="&amp;lt;&amp;lt;include&amp;gt;&amp;gt;" style="edgeLabel;html=1;align=center;verticalAlign=middle;resizable=0;points=[];rotation=-30;" vertex="1" connectable="0" parent="sStnEUvEsNFolojUVmBR-12">
          <mxGeometry x="-0.0379" y="2" relative="1" as="geometry">
            <mxPoint as="offset" />
          </mxGeometry>
        </mxCell>
        <mxCell id="sStnEUvEsNFolojUVmBR-13" style="rounded=0;orthogonalLoop=1;jettySize=auto;html=1;dashed=1;" edge="1" parent="1" source="sStnEUvEsNFolojUVmBR-8" target="sStnEUvEsNFolojUVmBR-10">
          <mxGeometry relative="1" as="geometry" />
        </mxCell>
        <mxCell id="sStnEUvEsNFolojUVmBR-16" value="&amp;lt;&amp;lt;include&amp;gt;&amp;gt;" style="edgeLabel;html=1;align=center;verticalAlign=middle;resizable=0;points=[];rotation=-15;" vertex="1" connectable="0" parent="sStnEUvEsNFolojUVmBR-13">
          <mxGeometry x="-0.0816" y="2" relative="1" as="geometry">
            <mxPoint as="offset" />
          </mxGeometry>
        </mxCell>
        <mxCell id="sStnEUvEsNFolojUVmBR-14" style="rounded=0;orthogonalLoop=1;jettySize=auto;html=1;dashed=1;" edge="1" parent="1" source="sStnEUvEsNFolojUVmBR-8" target="sStnEUvEsNFolojUVmBR-11">
          <mxGeometry relative="1" as="geometry" />
        </mxCell>
        <mxCell id="sStnEUvEsNFolojUVmBR-17" value="&amp;lt;&amp;lt;include&amp;gt;&amp;gt;" style="edgeLabel;html=1;align=center;verticalAlign=middle;resizable=0;points=[];rotation=-15;" vertex="1" connectable="0" parent="sStnEUvEsNFolojUVmBR-14">
          <mxGeometry x="0.042" y="-1" relative="1" as="geometry">
            <mxPoint as="offset" />
          </mxGeometry>
        </mxCell>
        <mxCell id="sStnEUvEsNFolojUVmBR-19" style="rounded=0;orthogonalLoop=1;jettySize=auto;html=1;dashed=1;" edge="1" parent="1" source="sStnEUvEsNFolojUVmBR-8" target="sStnEUvEsNFolojUVmBR-18">
          <mxGeometry relative="1" as="geometry" />
        </mxCell>
        <mxCell id="sStnEUvEsNFolojUVmBR-20" value="&amp;lt;&amp;lt;include&amp;gt;&amp;gt;" style="edgeLabel;html=1;align=center;verticalAlign=middle;resizable=0;points=[];" vertex="1" connectable="0" parent="sStnEUvEsNFolojUVmBR-19">
          <mxGeometry x="-0.1092" y="2" relative="1" as="geometry">
            <mxPoint as="offset" />
          </mxGeometry>
        </mxCell>
        <mxCell id="sStnEUvEsNFolojUVmBR-8" value="Взаимодействие с каталогом жилья" style="ellipse;whiteSpace=wrap;html=1;" vertex="1" parent="1">
          <mxGeometry x="1430" y="310" width="120" height="50" as="geometry" />
        </mxCell>
        <mxCell id="sStnEUvEsNFolojUVmBR-9" value="Фильтрация" style="ellipse;whiteSpace=wrap;html=1;" vertex="1" parent="1">
          <mxGeometry x="1590" y="190" width="120" height="50" as="geometry" />
        </mxCell>
        <mxCell id="sStnEUvEsNFolojUVmBR-10" value="Сортировка" style="ellipse;whiteSpace=wrap;html=1;" vertex="1" parent="1">
          <mxGeometry x="1716" y="190" width="120" height="50" as="geometry" />
        </mxCell>
        <mxCell id="sStnEUvEsNFolojUVmBR-11" value="Поиск" style="ellipse;whiteSpace=wrap;html=1;" vertex="1" parent="1">
          <mxGeometry x="1810" y="230" width="120" height="50" as="geometry" />
        </mxCell>
        <mxCell id="sStnEUvEsNFolojUVmBR-18" value="Просмотр информации о жилье" style="ellipse;whiteSpace=wrap;html=1;" vertex="1" parent="1">
          <mxGeometry x="1810" y="290" width="120" height="50" as="geometry" />
        </mxCell>
        <mxCell id="sStnEUvEsNFolojUVmBR-30" style="rounded=0;orthogonalLoop=1;jettySize=auto;html=1;endArrow=none;startFill=0;" edge="1" parent="1" source="sStnEUvEsNFolojUVmBR-26" target="sStnEUvEsNFolojUVmBR-27">
          <mxGeometry relative="1" as="geometry" />
        </mxCell>
        <mxCell id="sStnEUvEsNFolojUVmBR-35" style="rounded=0;orthogonalLoop=1;jettySize=auto;html=1;endArrow=none;startFill=0;" edge="1" parent="1" source="sStnEUvEsNFolojUVmBR-26" target="sStnEUvEsNFolojUVmBR-32">
          <mxGeometry relative="1" as="geometry" />
        </mxCell>
        <mxCell id="sStnEUvEsNFolojUVmBR-36" style="rounded=0;orthogonalLoop=1;jettySize=auto;html=1;endArrow=none;startFill=0;" edge="1" parent="1" source="sStnEUvEsNFolojUVmBR-26" target="sStnEUvEsNFolojUVmBR-33">
          <mxGeometry relative="1" as="geometry" />
        </mxCell>
        <mxCell id="sStnEUvEsNFolojUVmBR-37" style="rounded=0;orthogonalLoop=1;jettySize=auto;html=1;endArrow=none;startFill=0;" edge="1" parent="1" source="sStnEUvEsNFolojUVmBR-26" target="sStnEUvEsNFolojUVmBR-34">
          <mxGeometry relative="1" as="geometry" />
        </mxCell>
        <mxCell id="sStnEUvEsNFolojUVmBR-26" value="Пользователь" style="shape=umlActor;verticalLabelPosition=bottom;verticalAlign=top;html=1;outlineConnect=0;" vertex="1" parent="1">
          <mxGeometry x="1290" y="420" width="30" height="60" as="geometry" />
        </mxCell>
        <mxCell id="sStnEUvEsNFolojUVmBR-29" style="rounded=0;orthogonalLoop=1;jettySize=auto;html=1;dashed=1;" edge="1" parent="1" source="sStnEUvEsNFolojUVmBR-27" target="sStnEUvEsNFolojUVmBR-28">
          <mxGeometry relative="1" as="geometry" />
        </mxCell>
        <mxCell id="sStnEUvEsNFolojUVmBR-31" value="&amp;lt;&amp;lt;extend&amp;gt;&amp;gt;" style="edgeLabel;html=1;align=center;verticalAlign=middle;resizable=0;points=[];" vertex="1" connectable="0" parent="sStnEUvEsNFolojUVmBR-29">
          <mxGeometry x="-0.1678" y="1" relative="1" as="geometry">
            <mxPoint as="offset" />
          </mxGeometry>
        </mxCell>
        <mxCell id="sStnEUvEsNFolojUVmBR-27" value="Бронирование жилья" style="ellipse;whiteSpace=wrap;html=1;" vertex="1" parent="1">
          <mxGeometry x="1430" y="370" width="120" height="50" as="geometry" />
        </mxCell>
        <mxCell id="sStnEUvEsNFolojUVmBR-28" value="Поддержка чата с владельцем" style="ellipse;whiteSpace=wrap;html=1;" vertex="1" parent="1">
          <mxGeometry x="1810" y="350" width="120" height="50" as="geometry" />
        </mxCell>
        <mxCell id="sStnEUvEsNFolojUVmBR-32" value="Просмотр статуса бронирования и истории" style="ellipse;whiteSpace=wrap;html=1;" vertex="1" parent="1">
          <mxGeometry x="1690" y="390" width="120" height="60" as="geometry" />
        </mxCell>
        <mxCell id="sStnEUvEsNFolojUVmBR-33" value="Оставление отзыва" style="ellipse;whiteSpace=wrap;html=1;" vertex="1" parent="1">
          <mxGeometry x="1810" y="430" width="120" height="50" as="geometry" />
        </mxCell>
        <mxCell id="sStnEUvEsNFolojUVmBR-34" value="Изменение личной информации аккаунта" style="ellipse;whiteSpace=wrap;html=1;" vertex="1" parent="1">
          <mxGeometry x="1590" y="460" width="120" height="60" as="geometry" />
        </mxCell>
        <mxCell id="sStnEUvEsNFolojUVmBR-44" style="rounded=0;orthogonalLoop=1;jettySize=auto;html=1;endArrow=none;startFill=0;" edge="1" parent="1" source="sStnEUvEsNFolojUVmBR-39" target="sStnEUvEsNFolojUVmBR-40">
          <mxGeometry relative="1" as="geometry" />
        </mxCell>
        <mxCell id="sStnEUvEsNFolojUVmBR-58" style="rounded=0;orthogonalLoop=1;jettySize=auto;html=1;endArrow=none;startFill=0;" edge="1" parent="1" source="sStnEUvEsNFolojUVmBR-39" target="sStnEUvEsNFolojUVmBR-51">
          <mxGeometry relative="1" as="geometry" />
        </mxCell>
        <mxCell id="sStnEUvEsNFolojUVmBR-59" style="rounded=0;orthogonalLoop=1;jettySize=auto;html=1;endArrow=none;startFill=0;" edge="1" parent="1" source="sStnEUvEsNFolojUVmBR-39" target="sStnEUvEsNFolojUVmBR-52">
          <mxGeometry relative="1" as="geometry" />
        </mxCell>
        <mxCell id="sStnEUvEsNFolojUVmBR-60" style="rounded=0;orthogonalLoop=1;jettySize=auto;html=1;endArrow=none;startFill=0;" edge="1" parent="1" source="sStnEUvEsNFolojUVmBR-39" target="sStnEUvEsNFolojUVmBR-53">
          <mxGeometry relative="1" as="geometry" />
        </mxCell>
        <mxCell id="sStnEUvEsNFolojUVmBR-62" style="rounded=0;orthogonalLoop=1;jettySize=auto;html=1;endArrow=none;startFill=0;" edge="1" parent="1" source="sStnEUvEsNFolojUVmBR-39" target="sStnEUvEsNFolojUVmBR-61">
          <mxGeometry relative="1" as="geometry" />
        </mxCell>
        <mxCell id="sStnEUvEsNFolojUVmBR-39" value="Владелец" style="shape=umlActor;verticalLabelPosition=bottom;verticalAlign=top;html=1;outlineConnect=0;" vertex="1" parent="1">
          <mxGeometry x="1290" y="570" width="30" height="60" as="geometry" />
        </mxCell>
        <mxCell id="sStnEUvEsNFolojUVmBR-45" style="rounded=0;orthogonalLoop=1;jettySize=auto;html=1;dashed=1;" edge="1" parent="1" source="sStnEUvEsNFolojUVmBR-40" target="sStnEUvEsNFolojUVmBR-41">
          <mxGeometry relative="1" as="geometry" />
        </mxCell>
        <mxCell id="sStnEUvEsNFolojUVmBR-48" value="&amp;lt;&amp;lt;include&amp;gt;&amp;gt;" style="edgeLabel;html=1;align=center;verticalAlign=middle;resizable=0;points=[];rotation=-15;" vertex="1" connectable="0" parent="sStnEUvEsNFolojUVmBR-45">
          <mxGeometry x="0.0451" y="1" relative="1" as="geometry">
            <mxPoint as="offset" />
          </mxGeometry>
        </mxCell>
        <mxCell id="sStnEUvEsNFolojUVmBR-46" style="rounded=0;orthogonalLoop=1;jettySize=auto;html=1;dashed=1;" edge="1" parent="1" source="sStnEUvEsNFolojUVmBR-40" target="sStnEUvEsNFolojUVmBR-42">
          <mxGeometry relative="1" as="geometry" />
        </mxCell>
        <mxCell id="sStnEUvEsNFolojUVmBR-49" value="&amp;lt;&amp;lt;include&amp;gt;&amp;gt;" style="edgeLabel;html=1;align=center;verticalAlign=middle;resizable=0;points=[];" vertex="1" connectable="0" parent="sStnEUvEsNFolojUVmBR-46">
          <mxGeometry x="-0.0143" y="2" relative="1" as="geometry">
            <mxPoint as="offset" />
          </mxGeometry>
        </mxCell>
        <mxCell id="sStnEUvEsNFolojUVmBR-47" style="rounded=0;orthogonalLoop=1;jettySize=auto;html=1;dashed=1;" edge="1" parent="1" source="sStnEUvEsNFolojUVmBR-40" target="sStnEUvEsNFolojUVmBR-43">
          <mxGeometry relative="1" as="geometry" />
        </mxCell>
        <mxCell id="sStnEUvEsNFolojUVmBR-50" value="&amp;lt;&amp;lt;include&amp;gt;&amp;gt;" style="edgeLabel;html=1;align=center;verticalAlign=middle;resizable=0;points=[];rotation=15;" vertex="1" connectable="0" parent="sStnEUvEsNFolojUVmBR-47">
          <mxGeometry x="0.0209" y="2" relative="1" as="geometry">
            <mxPoint as="offset" />
          </mxGeometry>
        </mxCell>
        <mxCell id="sStnEUvEsNFolojUVmBR-40" value="Управление жильем" style="ellipse;whiteSpace=wrap;html=1;" vertex="1" parent="1">
          <mxGeometry x="1410" y="530" width="120" height="50" as="geometry" />
        </mxCell>
        <mxCell id="sStnEUvEsNFolojUVmBR-41" value="Добавить жилье" style="ellipse;whiteSpace=wrap;html=1;" vertex="1" parent="1">
          <mxGeometry x="1716" y="480" width="120" height="50" as="geometry" />
        </mxCell>
        <mxCell id="sStnEUvEsNFolojUVmBR-42" value="Изменить жилье" style="ellipse;whiteSpace=wrap;html=1;" vertex="1" parent="1">
          <mxGeometry x="1820" y="510" width="120" height="50" as="geometry" />
        </mxCell>
        <mxCell id="sStnEUvEsNFolojUVmBR-43" value="Удалить жилье" style="ellipse;whiteSpace=wrap;html=1;" vertex="1" parent="1">
          <mxGeometry x="1710" y="550" width="120" height="50" as="geometry" />
        </mxCell>
        <mxCell id="sStnEUvEsNFolojUVmBR-56" style="rounded=0;orthogonalLoop=1;jettySize=auto;html=1;dashed=1;" edge="1" parent="1" source="sStnEUvEsNFolojUVmBR-51" target="sStnEUvEsNFolojUVmBR-54">
          <mxGeometry relative="1" as="geometry" />
        </mxCell>
        <mxCell id="sStnEUvEsNFolojUVmBR-78" value="&amp;lt;&amp;lt;include&amp;gt;&amp;gt;" style="edgeLabel;html=1;align=center;verticalAlign=middle;resizable=0;points=[];" vertex="1" connectable="0" parent="sStnEUvEsNFolojUVmBR-56">
          <mxGeometry x="-0.1508" y="-1" relative="1" as="geometry">
            <mxPoint as="offset" />
          </mxGeometry>
        </mxCell>
        <mxCell id="sStnEUvEsNFolojUVmBR-57" style="rounded=0;orthogonalLoop=1;jettySize=auto;html=1;dashed=1;" edge="1" parent="1" source="sStnEUvEsNFolojUVmBR-51" target="sStnEUvEsNFolojUVmBR-55">
          <mxGeometry relative="1" as="geometry" />
        </mxCell>
        <mxCell id="sStnEUvEsNFolojUVmBR-79" value="&amp;lt;&amp;lt;include&amp;gt;&amp;gt;" style="edgeLabel;html=1;align=center;verticalAlign=middle;resizable=0;points=[];rotation=15;" vertex="1" connectable="0" parent="sStnEUvEsNFolojUVmBR-57">
          <mxGeometry x="0.1042" y="1" relative="1" as="geometry">
            <mxPoint as="offset" />
          </mxGeometry>
        </mxCell>
        <mxCell id="sStnEUvEsNFolojUVmBR-51" value="Управление статусом бронирования" style="ellipse;whiteSpace=wrap;html=1;" vertex="1" parent="1">
          <mxGeometry x="1510" y="570" width="120" height="50" as="geometry" />
        </mxCell>
        <mxCell id="sStnEUvEsNFolojUVmBR-52" value="Поддержка чата с пользователем" style="ellipse;whiteSpace=wrap;html=1;" vertex="1" parent="1">
          <mxGeometry x="1550" y="630" width="120" height="50" as="geometry" />
        </mxCell>
        <mxCell id="sStnEUvEsNFolojUVmBR-53" value="Просмотр своей статистики" style="ellipse;whiteSpace=wrap;html=1;" vertex="1" parent="1">
          <mxGeometry x="1400" y="650" width="120" height="50" as="geometry" />
        </mxCell>
        <mxCell id="sStnEUvEsNFolojUVmBR-54" value="Одобрить бронирование" style="ellipse;whiteSpace=wrap;html=1;" vertex="1" parent="1">
          <mxGeometry x="1810" y="590" width="120" height="50" as="geometry" />
        </mxCell>
        <mxCell id="sStnEUvEsNFolojUVmBR-55" value="Отменить бронирование" style="ellipse;whiteSpace=wrap;html=1;" vertex="1" parent="1">
          <mxGeometry x="1790" y="650" width="120" height="50" as="geometry" />
        </mxCell>
        <mxCell id="sStnEUvEsNFolojUVmBR-61" value="Создание бронирования" style="ellipse;whiteSpace=wrap;html=1;" vertex="1" parent="1">
          <mxGeometry x="1380" y="470" width="120" height="50" as="geometry" />
        </mxCell>
        <mxCell id="sStnEUvEsNFolojUVmBR-69" style="edgeStyle=orthogonalEdgeStyle;rounded=0;orthogonalLoop=1;jettySize=auto;html=1;endArrow=none;startFill=0;" edge="1" parent="1" source="sStnEUvEsNFolojUVmBR-63" target="sStnEUvEsNFolojUVmBR-64">
          <mxGeometry relative="1" as="geometry" />
        </mxCell>
        <mxCell id="sStnEUvEsNFolojUVmBR-82" style="rounded=0;orthogonalLoop=1;jettySize=auto;html=1;endArrow=none;startFill=0;" edge="1" parent="1" source="sStnEUvEsNFolojUVmBR-63" target="sStnEUvEsNFolojUVmBR-68">
          <mxGeometry relative="1" as="geometry" />
        </mxCell>
        <mxCell id="sStnEUvEsNFolojUVmBR-83" style="rounded=0;orthogonalLoop=1;jettySize=auto;html=1;endArrow=none;startFill=0;" edge="1" parent="1" source="sStnEUvEsNFolojUVmBR-63" target="sStnEUvEsNFolojUVmBR-65">
          <mxGeometry relative="1" as="geometry" />
        </mxCell>
        <mxCell id="sStnEUvEsNFolojUVmBR-63" value="Администрато&lt;span style=&quot;background-color: transparent; color: light-dark(rgb(0, 0, 0), rgb(255, 255, 255));&quot;&gt;р&lt;/span&gt;" style="shape=umlActor;verticalLabelPosition=bottom;verticalAlign=top;html=1;outlineConnect=0;" vertex="1" parent="1">
          <mxGeometry x="1290" y="725" width="30" height="60" as="geometry" />
        </mxCell>
        <mxCell id="sStnEUvEsNFolojUVmBR-76" style="rounded=0;orthogonalLoop=1;jettySize=auto;html=1;endArrow=classic;endFill=1;dashed=1;" edge="1" parent="1" source="sStnEUvEsNFolojUVmBR-64" target="sStnEUvEsNFolojUVmBR-67">
          <mxGeometry relative="1" as="geometry" />
        </mxCell>
        <mxCell id="sStnEUvEsNFolojUVmBR-80" value="&amp;lt;&amp;lt;include&amp;gt;&amp;gt;" style="edgeLabel;html=1;align=center;verticalAlign=middle;resizable=0;points=[];rotation=-15;" vertex="1" connectable="0" parent="sStnEUvEsNFolojUVmBR-76">
          <mxGeometry x="-0.0484" y="1" relative="1" as="geometry">
            <mxPoint as="offset" />
          </mxGeometry>
        </mxCell>
        <mxCell id="sStnEUvEsNFolojUVmBR-77" style="rounded=0;orthogonalLoop=1;jettySize=auto;html=1;endArrow=classic;endFill=1;dashed=1;" edge="1" parent="1" source="sStnEUvEsNFolojUVmBR-64" target="sStnEUvEsNFolojUVmBR-66">
          <mxGeometry relative="1" as="geometry" />
        </mxCell>
        <mxCell id="sStnEUvEsNFolojUVmBR-81" value="&amp;lt;&amp;lt;include&amp;gt;&amp;gt;" style="edgeLabel;html=1;align=center;verticalAlign=middle;resizable=0;points=[];" vertex="1" connectable="0" parent="sStnEUvEsNFolojUVmBR-77">
          <mxGeometry x="-0.2281" y="-1" relative="1" as="geometry">
            <mxPoint as="offset" />
          </mxGeometry>
        </mxCell>
        <mxCell id="sStnEUvEsNFolojUVmBR-64" value="Управление пользователями и владельцами" style="ellipse;whiteSpace=wrap;html=1;" vertex="1" parent="1">
          <mxGeometry x="1460" y="730" width="120" height="50" as="geometry" />
        </mxCell>
        <mxCell id="sStnEUvEsNFolojUVmBR-65" value="Просмотр своей статистики" style="ellipse;whiteSpace=wrap;html=1;" vertex="1" parent="1">
          <mxGeometry x="1400" y="800" width="120" height="50" as="geometry" />
        </mxCell>
        <mxCell id="sStnEUvEsNFolojUVmBR-66" value="Верификация" style="ellipse;whiteSpace=wrap;html=1;" vertex="1" parent="1">
          <mxGeometry x="1800" y="700" width="120" height="50" as="geometry" />
        </mxCell>
        <mxCell id="sStnEUvEsNFolojUVmBR-67" value="Блокировка" style="ellipse;whiteSpace=wrap;html=1;" vertex="1" parent="1">
          <mxGeometry x="1654" y="670" width="120" height="50" as="geometry" />
        </mxCell>
        <mxCell id="sStnEUvEsNFolojUVmBR-86" style="rounded=0;orthogonalLoop=1;jettySize=auto;html=1;dashed=1;" edge="1" parent="1" source="sStnEUvEsNFolojUVmBR-68" target="sStnEUvEsNFolojUVmBR-84">
          <mxGeometry relative="1" as="geometry" />
        </mxCell>
        <mxCell id="sStnEUvEsNFolojUVmBR-88" value="&amp;lt;&amp;lt;include&amp;gt;&amp;gt;" style="edgeLabel;html=1;align=center;verticalAlign=middle;resizable=0;points=[];" vertex="1" connectable="0" parent="sStnEUvEsNFolojUVmBR-86">
          <mxGeometry x="-0.0303" relative="1" as="geometry">
            <mxPoint y="1" as="offset" />
          </mxGeometry>
        </mxCell>
        <mxCell id="sStnEUvEsNFolojUVmBR-87" style="rounded=0;orthogonalLoop=1;jettySize=auto;html=1;dashed=1;" edge="1" parent="1" source="sStnEUvEsNFolojUVmBR-68" target="sStnEUvEsNFolojUVmBR-85">
          <mxGeometry relative="1" as="geometry" />
        </mxCell>
        <mxCell id="sStnEUvEsNFolojUVmBR-89" value="&amp;lt;&amp;lt;include&amp;gt;&amp;gt;" style="edgeLabel;html=1;align=center;verticalAlign=middle;resizable=0;points=[];" vertex="1" connectable="0" parent="sStnEUvEsNFolojUVmBR-87">
          <mxGeometry x="-0.0442" y="2" relative="1" as="geometry">
            <mxPoint as="offset" />
          </mxGeometry>
        </mxCell>
        <mxCell id="sStnEUvEsNFolojUVmBR-68" value="Управление запросами на создание жилья" style="ellipse;whiteSpace=wrap;html=1;" vertex="1" parent="1">
          <mxGeometry x="1530" y="785" width="120" height="55" as="geometry" />
        </mxCell>
        <mxCell id="sStnEUvEsNFolojUVmBR-84" value="Одобрить жилье" style="ellipse;whiteSpace=wrap;html=1;" vertex="1" parent="1">
          <mxGeometry x="1810" y="760" width="120" height="50" as="geometry" />
        </mxCell>
        <mxCell id="sStnEUvEsNFolojUVmBR-85" value="Отклонить жилье" style="ellipse;whiteSpace=wrap;html=1;" vertex="1" parent="1">
          <mxGeometry x="1740" y="810" width="120" height="45" as="geometry" />
        </mxCell>
      </root>
    </mxGraphModel>
  </diagram>
</mxfile>
